<svg width="407" height="43" viewBox="0 0 407 43" fill="none" xmlns="http://www.w3.org/2000/svg">
<path d="M3.6 39C2.61 39 1.7628 38.6478 1.0584 37.9434C0.354 37.239 0.0012 36.3912 0 35.4V6.6C0 5.61 0.3528 4.7628 1.0584 4.0584C1.764 3.354 2.6112 3.0012 3.6 3H25.2C26.19 3 27.0378 3.3528 27.7434 4.0584C28.449 4.764 28.8012 5.6112 28.8 6.6V35.4C28.8 36.39 28.4478 37.2378 27.7434 37.9434C27.039 38.649 26.1912 39.0012 25.2 39H3.6ZM12.6 19.2L17.1 16.5L21.6 19.2V6.6H12.6V19.2Z" fill="black"/>
<path d="M65.2 20.716V20.752C67.468 21.904 69.088 24.388 69.052 26.872C69.052 30.796 65.452 34 61.276 34H51.304V8.08H60.268C64.552 8.08 68.044 11.284 68.044 15.208C68.044 17.44 66.928 19.42 65.2 20.716ZM60.268 13.084H56.488V18.628H60.268C61.708 18.628 62.86 17.404 62.86 15.856C62.86 14.308 61.708 13.084 60.268 13.084ZM61.276 28.996C62.716 28.996 63.868 27.772 63.868 26.224C63.868 24.676 62.716 23.452 61.276 23.452H56.488V28.996H61.276ZM80.7202 34.216C76.5442 34.216 73.9162 31.768 73.9162 26.296V15.424H79.1002V25.576C79.1002 27.664 80.5402 29.032 82.3402 29.032C84.1402 29.032 85.5802 27.664 85.5802 25.576V15.424H90.7642V34H85.7602V31.588C84.6802 33.208 82.7722 34.216 80.7202 34.216ZM101.64 27.664C102.072 29.5 103.656 30.076 105.168 30.076C106.752 30.076 107.904 29.5 107.904 28.492C107.904 27.664 106.788 27.196 105.348 26.908L102.54 26.332C98.0044 25.396 96.9244 23.344 96.9244 20.788C96.9244 17.692 99.9484 15.208 104.808 15.208C109.992 15.208 112.836 18.664 112.836 21.364H107.688C107.544 20.14 106.212 19.132 104.736 19.132C103.296 19.132 102.288 19.78 102.288 20.572C102.288 21.4 103.152 21.796 104.052 21.976L107.184 22.588C111.288 23.38 113.268 25.432 113.196 28.06C113.088 32.056 110.064 34.216 105.168 34.216C99.3724 34.216 96.5644 31.12 96.2044 27.664H101.64ZM130.697 15.424H135.881V34H130.697V31.768C129.293 33.28 127.457 34.216 125.405 34.216C121.049 34.216 117.521 29.968 117.521 24.712C117.521 19.456 121.049 15.208 125.405 15.208C127.457 15.208 129.293 16.144 130.697 17.656V15.424ZM126.701 29.032C128.897 29.032 130.697 27.088 130.697 24.712C130.697 22.336 128.897 20.392 126.701 20.392C124.505 20.392 122.705 22.336 122.705 24.712C122.705 27.088 124.505 29.032 126.701 29.032ZM153.417 20.14C151.221 20.14 149.745 21.724 149.745 23.992V29.572H157.845V34H139.989V29.572H144.561V19.852H140.385V15.424H148.989V18.844C149.637 17.044 151.329 15.208 154.317 15.208C156.801 15.208 158.745 15.424 158.745 15.424V20.32C158.745 20.32 155.289 20.14 153.417 20.14ZM175.345 15.424H180.529V34H175.345V31.768C173.941 33.28 172.105 34.216 170.053 34.216C165.697 34.216 162.169 29.968 162.169 24.712C162.169 19.456 165.697 15.208 170.053 15.208C172.105 15.208 173.941 16.144 175.345 17.656V15.424ZM171.349 29.032C173.545 29.032 175.345 27.088 175.345 24.712C175.345 22.336 173.545 20.392 171.349 20.392C169.153 20.392 167.353 22.336 167.353 24.712C167.353 27.088 169.153 29.032 171.349 29.032ZM221.47 20.716V20.752C223.738 21.904 225.358 24.388 225.322 26.872C225.322 30.796 221.722 34 217.546 34H207.574V8.08H216.538C220.822 8.08 224.314 11.284 224.314 15.208C224.314 17.44 223.198 19.42 221.47 20.716ZM216.538 13.084H212.758V18.628H216.538C217.978 18.628 219.13 17.404 219.13 15.856C219.13 14.308 217.978 13.084 216.538 13.084ZM217.546 28.996C218.986 28.996 220.138 27.772 220.138 26.224C220.138 24.676 218.986 23.452 217.546 23.452H212.758V28.996H217.546ZM238.754 34.216C233.642 34.216 229.466 29.968 229.466 24.712C229.466 19.456 233.642 15.208 238.754 15.208H238.79C243.902 15.208 248.042 19.492 248.042 24.712C248.042 29.932 243.902 34.216 238.79 34.216H238.754ZM238.754 29.032H238.79C241.058 29.032 242.858 27.088 242.858 24.712C242.858 22.336 241.022 20.392 238.79 20.392H238.754C236.486 20.392 234.65 22.336 234.65 24.712C234.65 27.088 236.486 29.032 238.754 29.032ZM261.078 34.216C255.966 34.216 251.79 29.968 251.79 24.712C251.79 19.456 255.966 15.208 261.078 15.208H261.114C266.226 15.208 270.366 19.492 270.366 24.712C270.366 29.932 266.226 34.216 261.114 34.216H261.078ZM261.078 29.032H261.114C263.382 29.032 265.182 27.088 265.182 24.712C265.182 22.336 263.346 20.392 261.114 20.392H261.078C258.81 20.392 256.974 22.336 256.974 24.712C256.974 27.088 258.81 29.032 261.078 29.032ZM287.686 34L282.646 26.548L280.306 28.708V34H275.122V8.08H280.306V22.624L286.894 15.424H293.698L286.534 23.164L293.986 34H287.686ZM328.087 34.216C320.851 34.216 318.007 28.312 318.007 21.04C318.007 13.768 320.851 7.864 328.087 7.864C333.703 7.864 337.375 11.788 337.987 17.188H332.623C332.479 14.884 330.823 12.724 328.087 12.724C324.343 12.724 323.191 15.928 323.191 21.04C323.191 26.188 324.343 29.356 328.087 29.356C330.895 29.356 332.299 27.484 332.659 24.784H337.987C337.699 30.256 333.775 34.216 328.087 34.216ZM353.003 29.572H359.339V34H341.159V29.572H347.819V12.508H342.203V8.08H353.003V29.572ZM370.935 34.216C366.759 34.216 364.131 31.768 364.131 26.296V15.424H369.315V25.576C369.315 27.664 370.755 29.032 372.555 29.032C374.355 29.032 375.795 27.664 375.795 25.576V15.424H380.979V34H375.975V31.588C374.895 33.208 372.987 34.216 370.935 34.216ZM386.743 8.08H391.927V17.836C393.115 16.324 395.023 15.208 397.075 15.208C401.431 15.208 405.103 19.096 405.103 24.712C405.103 30.328 401.431 34.216 397.075 34.216C395.023 34.216 393.151 33.496 391.927 31.588V34H386.743V8.08ZM395.923 29.032C398.119 29.032 399.919 27.088 399.919 24.712C399.919 22.336 398.119 20.392 395.923 20.392C393.727 20.392 391.927 22.336 391.927 24.712C391.927 27.088 393.727 29.032 395.923 29.032Z" fill="black"/>
</svg>
